<svg xmlns="http://www.w3.org/2000/svg" viewBox="0 0 800 800"><defs><linearGradient x1="50%" y1="0%" x2="50%" y2="100%" id="a" gradientTransform="rotate(270)"><stop stop-color="hsl(238, 82%, 13%)" offset="0%"/><stop stop-color="hsl(1.4, 100%, 67%)" offset="45%"/><stop stop-color="hsl(167, 52%, 78%)" offset="100%"/></linearGradient></defs><rect width="100%" height="100%" fill="hsl(238, 82%, 13%)"/><g fill="url(#a)"><rect width="213" height="3" x="78.5" y="779.5" rx="1.5" transform="rotate(148 185 781)" opacity=".22"/><rect width="608" height="3" x="-275" y="742.5" rx="1.5" transform="rotate(148 29 744)" opacity=".62"/><rect width="194" height="3" x="244" y="771.5" rx="1.5" transform="rotate(148 341 773)" opacity=".73"/><rect width="441" height="3" x="392.5" y="335.5" rx="1.5" transform="rotate(148 613 337)" opacity=".72"/><rect width="396" height="3" x="-74" y="308.5" rx="1.5" transform="rotate(148 124 310)" opacity=".73"/><rect width="145" height="3" x="311.5" y="341.5" rx="1.5" transform="rotate(148 384 343)" opacity=".45"/><rect width="705" height="3" x="245.5" y="556.5" rx="1.5" transform="rotate(148 598 558)" opacity=".73"/><rect width="264" height="3" x="182" y="117.5" rx="1.5" transform="rotate(148 314 119)" opacity=".43"/><rect width="670" height="3" x="-298" y="647.5" rx="1.5" transform="rotate(148 37 649)" opacity=".58"/><rect width="486" height="3" x="518" y="515.5" rx="1.5" transform="rotate(148 761 517)" opacity=".97"/><rect width="562" height="3" x="336" y="492.5" rx="1.5" transform="rotate(148 617 494)" opacity=".38"/><rect width="187" height="3" x="458.5" y="577.5" rx="1.5" transform="rotate(148 552 579)" opacity=".27"/><rect width="107" height="3" x="-23.5" y="362.5" rx="1.5" transform="rotate(148 30 364)" opacity=".42"/><rect width="633" height="3" x="184.5" y="764.5" rx="1.5" transform="rotate(148 501 766)" opacity=".17"/><rect width="34" height="3" x="141" y="396.5" rx="1.5" transform="rotate(148 158 398)" opacity=".32"/><rect width="349" height="3" x="105.5" y="459.5" rx="1.5" transform="rotate(148 280 461)" opacity=".25"/><rect width="261" height="3" x="629.5" y="655.5" rx="1.5" transform="rotate(148 760 657)"/><rect width="1007" height="3" x="-96.5" y="527.5" rx="1.5" transform="rotate(148 407 529)" opacity=".12"/><rect width="471" height="3" x="298.5" y="28.5" rx="1.5" transform="rotate(148 534 30)" opacity=".08"/><rect width="197" height="3" x="10.5" y="552.5" rx="1.5" transform="rotate(148 109 554)" opacity=".82"/><rect width="218" height="3" x="633" y="454.5" rx="1.5" transform="rotate(148 742 456)" opacity=".45"/><rect width="250" height="3" x="295" y="758.5" rx="1.5" transform="rotate(148 420 760)" opacity=".96"/><rect width="621" height="3" x="66.5" y="209.5" rx="1.5" transform="rotate(148 377 211)" opacity=".76"/><rect width="499" height="3" x="-81.5" y="607.5" rx="1.5" transform="rotate(148 168 609)" opacity=".81"/><rect width="167" height="3" x="672.5" y="583.5" rx="1.5" transform="rotate(148 756 585)" opacity=".18"/><rect width="142" height="3" x="-6" y="65.5" rx="1.5" transform="rotate(148 65 67)" opacity=".52"/><rect width="240" height="3" x="-102" y="449.5" rx="1.5" transform="rotate(148 18 451)" opacity=".81"/><rect width="375" height="3" x="326.5" y="627.5" rx="1.5" transform="rotate(148 514 629)" opacity=".51"/><rect width="177" height="3" x="302.5" y="272.5" rx="1.5" transform="rotate(148 391 274)" opacity=".95"/><rect width="59" height="3" x="737.5" y="406.5" rx="1.5" transform="rotate(148 767 408)" opacity=".15"/><rect width="545" height="3" x="4.5" y="297.5" rx="1.5" transform="rotate(148 277 299)" opacity=".25"/><rect width="584" height="3" x="430" y="262.5" rx="1.5" transform="rotate(148 722 264)" opacity=".36"/><rect width="195" height="3" x="220.5" y="258.5" rx="1.5" transform="rotate(148 318 260)" opacity=".32"/><rect width="664" height="3" x="-248" y="602.5" rx="1.5" transform="rotate(148 84 604)" opacity=".57"/><rect width="413" height="3" x="450.5" y="767.5" rx="1.5" transform="rotate(148 657 769)" opacity=".37"/><rect width="71" height="3" x="291.5" y="176.5" rx="1.5" transform="rotate(148 327 178)" opacity=".2"/><rect width="448" height="3" x="164" y="76.5" rx="1.5" transform="rotate(148 388 78)" opacity=".56"/><rect width="425" height="3" x="199.5" y="23.5" rx="1.5" transform="rotate(148 412 25)" opacity=".91"/><rect width="605" height="3" x="395.5" y="680.5" rx="1.5" transform="rotate(148 698 682)" opacity=".41"/><rect width="295" height="3" x="375.5" y="214.5" rx="1.5" transform="rotate(148 523 216)" opacity=".31"/><rect width="289" height="3" x="418.5" y="760.5" rx="1.5" transform="rotate(148 563 762)" opacity=".72"/><rect width="806" height="3" x="-199" y="312.5" rx="1.5" transform="rotate(148 204 314)" opacity=".54"/><rect width="371" height="3" x="370.5" y="89.5" rx="1.5" transform="rotate(148 556 91)" opacity=".2"/><rect width="463" height="3" x="-25.5" y="148.5" rx="1.5" transform="rotate(148 206 150)" opacity=".07"/><rect width="174" height="3" x="677" y="169.5" rx="1.5" transform="rotate(148 764 171)" opacity=".28"/><rect width="40" height="3" x="584" y="740.5" rx="1.5" transform="rotate(148 604 742)" opacity=".28"/><rect width="123" height="3" x="31.5" y="485.5" rx="1.5" transform="rotate(148 93 487)" opacity=".44"/><rect width="154" height="3" x="288" y="630.5" rx="1.5" transform="rotate(148 365 632)" opacity=".8"/><rect width="28" height="3" x="204" y="663.5" rx="1.5" transform="rotate(148 218 665)" opacity=".54"/><rect width="815" height="3" x="-203.5" y="441.5" rx="1.5" transform="rotate(148 204 443)" opacity=".15"/><rect width="353" height="3" x="96.5" y="758.5" rx="1.5" transform="rotate(148 273 760)" opacity=".72"/><rect width="311" height="3" x="300.5" y="206.5" rx="1.5" transform="rotate(148 456 208)" opacity=".77"/><rect width="352" height="3" x="488" y="185.5" rx="1.5" transform="rotate(148 664 187)" opacity=".99"/><rect width="166" height="3" x="261" y="493.5" rx="1.5" transform="rotate(148 344 495)" opacity=".46"/><rect width="946" height="3" x="-309" y="210.5" rx="1.5" transform="rotate(148 164 212)" opacity=".2"/><rect width="506" height="3" x="-94" y="47.5" rx="1.5" transform="rotate(148 159 49)" opacity=".56"/><rect width="714" height="3" x="-82" y="620.5" rx="1.5" transform="rotate(148 275 622)" opacity=".67"/><rect width="213" height="3" x="74.5" y="680.5" rx="1.5" transform="rotate(148 181 682)" opacity=".56"/><rect width="780" height="3" x="18" y="139.5" rx="1.5" transform="rotate(148 408 141)" opacity=".81"/><rect width="342" height="3" x="503" y="548.5" rx="1.5" transform="rotate(148 674 550)" opacity=".79"/><rect width="309" height="3" x="55.5" y="554.5" rx="1.5" transform="rotate(148 210 556)" opacity=".1"/><rect width="846" height="3" x="12" y="416.5" rx="1.5" transform="rotate(148 435 418)" opacity=".9"/><rect width="152" height="3" x="154" y="744.5" rx="1.5" transform="rotate(148 230 746)" opacity=".52"/><rect width="237" height="3" x="361.5" y="325.5" rx="1.5" transform="rotate(148 480 327)" opacity=".17"/><rect width="428" height="3" x="463" y="119.5" rx="1.5" transform="rotate(148 677 121)" opacity=".24"/><rect width="256" height="3" x="557" y="466.5" rx="1.5" transform="rotate(148 685 468)" opacity=".49"/><rect width="226" height="3" x="469" y="187.5" rx="1.5" transform="rotate(148 582 189)" opacity=".5"/><rect width="276" height="3" x="111" y="500.5" rx="1.5" transform="rotate(148 249 502)" opacity=".74"/><rect width="808" height="3" x="-103" y="558.5" rx="1.5" transform="rotate(148 301 560)" opacity=".18"/><rect width="406" height="3" x="-141" y="451.5" rx="1.5" transform="rotate(148 62 453)" opacity=".73"/><rect width="180" height="3" x="558" y="716.5" rx="1.5" transform="rotate(148 648 718)" opacity=".93"/><rect width="123" height="3" x="212.5" y="363.5" rx="1.5" transform="rotate(148 274 365)" opacity=".67"/><rect width="852" height="3" x="138" y="420.5" rx="1.5" transform="rotate(148 564 422)" opacity=".87"/><rect width="441" height="3" x="373.5" y="267.5" rx="1.5" transform="rotate(148 594 269)" opacity=".84"/><rect width="522" height="3" x="198" y="697.5" rx="1.5" transform="rotate(148 459 699)" opacity=".24"/><rect width="597" height="3" x="-27.5" y="682.5" rx="1.5" transform="rotate(148 271 684)" opacity=".76"/><rect width="471" height="3" x="444.5" y="612.5" rx="1.5" transform="rotate(148 680 614)" opacity=".36"/><rect width="298" height="3" x="344" y="545.5" rx="1.5" transform="rotate(148 493 547)" opacity=".68"/><rect width="680" height="3" x="-186" y="501.5" rx="1.5" transform="rotate(148 154 503)" opacity=".83"/><rect width="625" height="3" x="33.5" y="706.5" rx="1.5" transform="rotate(148 346 708)" opacity=".51"/><rect width="462" height="3" x="307" y="297.5" rx="1.5" transform="rotate(148 538 299)" opacity=".07"/><rect width="686" height="3" x="-247" y="768.5" rx="1.5" transform="rotate(148 96 770)" opacity=".52"/><rect width="443" height="3" x="-129.5" y="224.5" rx="1.5" transform="rotate(148 92 226)" opacity=".59"/><rect width="619" height="3" x="-172.5" y="663.5" rx="1.5" transform="rotate(148 137 665)" opacity=".18"/><rect width="496" height="3" x="460" y="756.5" rx="1.5" transform="rotate(148 708 758)" opacity=".59"/><rect width="428" height="3" x="329" y="684.5" rx="1.5" transform="rotate(148 543 686)" opacity=".52"/><rect width="345" height="3" x="596.5" y="720.5" rx="1.5" transform="rotate(148 769 722)" opacity=".94"/><rect width="531" height="3" x="496.5" y="774.5" rx="1.5" transform="rotate(148 762 776)" opacity=".73"/><rect width="376" height="3" x="454" y="243.5" rx="1.5" transform="rotate(148 642 245)" opacity=".16"/><rect width="647" height="3" x="-67.5" y="213.5" rx="1.5" transform="rotate(148 256 215)" opacity=".95"/><rect width="354" height="3" x="564" y="336.5" rx="1.5" transform="rotate(148 741 338)" opacity=".58"/><rect width="364" height="3" x="14" y="726.5" rx="1.5" transform="rotate(148 196 728)" opacity=".62"/><rect width="488" height="3" x="196" y="617.5" rx="1.5" transform="rotate(148 440 619)" opacity=".76"/><rect width="652" height="3" x="324" y="396.5" rx="1.5" transform="rotate(148 650 398)" opacity=".65"/><rect width="627" height="3" x="-223.5" y="377.5" rx="1.5" transform="rotate(148 90 379)" opacity=".96"/><rect width="71" height="3" x="314.5" y="418.5" rx="1.5" transform="rotate(148 350 420)" opacity=".62"/><rect width="629" height="3" x="-286.5" y="553.5" rx="1.5" transform="rotate(148 28 555)" opacity=".45"/><rect width="78" height="3" x="4" y="164.5" rx="1.5" transform="rotate(148 43 166)" opacity=".52"/><rect width="294" height="3" x="443" y="124.5" rx="1.5" transform="rotate(148 590 126)" opacity=".93"/><rect width="498" height="3" x="465" y="43.5" rx="1.5" transform="rotate(148 714 45)" opacity=".2"/><rect width="566" height="3" x="-38" y="27.5" rx="1.5" transform="rotate(148 245 29)" opacity=".91"/><rect width="38" height="3" x="457" y="105.5" rx="1.5" transform="rotate(148 476 107)" opacity=".1"/><rect width="217" height="3" x="122.5" y="92.5" rx="1.5" transform="rotate(148 231 94)" opacity=".16"/><rect width="270" height="3" x="-101" y="279.5" rx="1.5" transform="rotate(148 34 281)" opacity=".52"/><rect width="264" height="3" x="153" y="412.5" rx="1.5" transform="rotate(148 285 414)" opacity=".54"/><rect width="684" height="3" x="-26" y="39.5" rx="1.5" transform="rotate(148 316 41)" opacity=".89"/><rect width="32" height="3" x="131" y="733.5" rx="1.5" transform="rotate(148 147 735)" opacity=".3"/><rect width="430" height="3" x="384" y="633.5" rx="1.5" transform="rotate(148 599 635)" opacity=".48"/><rect width="396" height="3" x="-108" y="692.5" rx="1.5" transform="rotate(148 90 694)" opacity=".08"/><rect width="499" height="3" x="256.5" y="467.5" rx="1.5" transform="rotate(148 506 469)" opacity=".93"/><rect width="402" height="3" x="434" y="669.5" rx="1.5" transform="rotate(148 635 671)" opacity=".23"/></g></svg>