<svg xmlns="http://www.w3.org/2000/svg" viewBox="0 0 800 800"><defs><linearGradient gradientTransform="rotate(270)" x1="50%" y1="0%" x2="50%" y2="100%" id="a"><stop stop-color="hsl(1.4, 100%, 67%)" offset="0%"/><stop stop-color="hsl(167, 52%, 78%)" offset="100%"/></linearGradient></defs><g stroke-width="2" stroke="url(#a)" fill="none" stroke-linecap="round" transform="translate(-5 -22.82)"><path d="M10 10c18.75 3.13 50.42 20.63 90 15 39.58-5.63 58.33-46.58 100-42 41.67 4.58 58.33 65.88 100 64 41.67-1.88 58.33-67.58 100-73 41.67-5.42 58.33 45.13 100 47 41.67 1.88 58.33-39.67 100-38 41.67 1.67 58.33 43.7 100 46 41.67 2.3 79.17-27.7 100-35M10 835c18.75 3.13 50.42 20.63 90 15 39.58-5.63 58.33-46.58 100-42 41.67 4.58 58.33 65.88 100 64 41.67-1.88 58.33-67.58 100-73 41.67-5.42 58.33 45.13 100 47 41.67 1.88 58.33-39.67 100-38 41.67 1.67 58.33 43.7 100 46 41.67 2.3 79.17-27.7 100-35"/><path d="M10 802c18.75 3.13 50.42 20.63 90 15 39.58-5.63 58.33-46.58 100-42 41.67 4.58 58.33 65.88 100 64 41.67-1.88 58.33-67.58 100-73 41.67-5.42 58.33 45.13 100 47 41.67 1.88 58.33-39.67 100-38 41.67 1.67 58.33 43.7 100 46 41.67 2.3 79.17-27.7 100-35"/><path d="M10 769c18.75 3.13 50.42 20.63 90 15 39.58-5.63 58.33-46.58 100-42 41.67 4.58 58.33 65.88 100 64 41.67-1.88 58.33-67.58 100-73 41.67-5.42 58.33 45.13 100 47 41.67 1.88 58.33-39.67 100-38 41.67 1.67 58.33 43.7 100 46 41.67 2.3 79.17-27.7 100-35"/><path d="M10 736c18.75 3.13 50.42 20.63 90 15 39.58-5.63 58.33-46.58 100-42 41.67 4.58 58.33 65.88 100 64 41.67-1.88 58.33-67.58 100-73 41.67-5.42 58.33 45.13 100 47 41.67 1.88 58.33-39.67 100-38 41.67 1.67 58.33 43.7 100 46 41.67 2.3 79.17-27.7 100-35"/><path d="M10 703c18.75 3.13 50.42 20.63 90 15 39.58-5.63 58.33-46.58 100-42 41.67 4.58 58.33 65.88 100 64 41.67-1.88 58.33-67.58 100-73 41.67-5.42 58.33 45.13 100 47 41.67 1.88 58.33-39.67 100-38 41.67 1.67 58.33 43.7 100 46 41.67 2.3 79.17-27.7 100-35"/><path d="M10 670c18.75 3.13 50.42 20.63 90 15 39.58-5.63 58.33-46.58 100-42 41.67 4.58 58.33 65.88 100 64 41.67-1.88 58.33-67.58 100-73 41.67-5.42 58.33 45.13 100 47 41.67 1.88 58.33-39.67 100-38 41.67 1.67 58.33 43.7 100 46 41.67 2.3 79.17-27.7 100-35"/><path d="M10 637c18.75 3.13 50.42 20.63 90 15 39.58-5.63 58.33-46.58 100-42 41.67 4.58 58.33 65.88 100 64 41.67-1.88 58.33-67.58 100-73 41.67-5.42 58.33 45.13 100 47 41.67 1.88 58.33-39.67 100-38 41.67 1.67 58.33 43.7 100 46 41.67 2.3 79.17-27.7 100-35"/><path d="M10 604c18.75 3.13 50.42 20.63 90 15 39.58-5.63 58.33-46.58 100-42 41.67 4.58 58.33 65.88 100 64 41.67-1.88 58.33-67.58 100-73 41.67-5.42 58.33 45.13 100 47 41.67 1.88 58.33-39.67 100-38 41.67 1.67 58.33 43.7 100 46 41.67 2.3 79.17-27.7 100-35"/><path d="M10 571c18.75 3.13 50.42 20.63 90 15 39.58-5.63 58.33-46.58 100-42 41.67 4.58 58.33 65.88 100 64 41.67-1.88 58.33-67.58 100-73 41.67-5.42 58.33 45.13 100 47 41.67 1.88 58.33-39.67 100-38 41.67 1.67 58.33 43.7 100 46 41.67 2.3 79.17-27.7 100-35"/><path d="M10 538c18.75 3.13 50.42 20.63 90 15 39.58-5.63 58.33-46.58 100-42 41.67 4.58 58.33 65.88 100 64 41.67-1.88 58.33-67.58 100-73 41.67-5.42 58.33 45.13 100 47 41.67 1.88 58.33-39.67 100-38 41.67 1.67 58.33 43.7 100 46 41.67 2.3 79.17-27.7 100-35"/><path d="M10 505c18.75 3.13 50.42 20.63 90 15 39.58-5.63 58.33-46.58 100-42 41.67 4.58 58.33 65.88 100 64 41.67-1.88 58.33-67.58 100-73 41.67-5.42 58.33 45.13 100 47 41.67 1.88 58.33-39.67 100-38 41.67 1.67 58.33 43.7 100 46 41.67 2.3 79.17-27.7 100-35"/><path d="M10 472c18.75 3.13 50.42 20.63 90 15 39.58-5.63 58.33-46.58 100-42 41.67 4.58 58.33 65.88 100 64 41.67-1.88 58.33-67.58 100-73 41.67-5.42 58.33 45.13 100 47 41.67 1.88 58.33-39.67 100-38 41.67 1.67 58.33 43.7 100 46 41.67 2.3 79.17-27.7 100-35"/><path d="M10 439c18.75 3.13 50.42 20.63 90 15 39.58-5.63 58.33-46.58 100-42 41.67 4.58 58.33 65.88 100 64 41.67-1.88 58.33-67.58 100-73 41.67-5.42 58.33 45.13 100 47 41.67 1.88 58.33-39.67 100-38 41.67 1.67 58.33 43.7 100 46 41.67 2.3 79.17-27.7 100-35"/><path d="M10 406c18.75 3.13 50.42 20.63 90 15 39.58-5.63 58.33-46.58 100-42 41.67 4.58 58.33 65.88 100 64 41.67-1.88 58.33-67.58 100-73 41.67-5.42 58.33 45.13 100 47 41.67 1.88 58.33-39.67 100-38 41.67 1.67 58.33 43.7 100 46 41.67 2.3 79.17-27.7 100-35"/><path d="M10 373c18.75 3.13 50.42 20.63 90 15 39.58-5.63 58.33-46.58 100-42 41.67 4.58 58.33 65.88 100 64 41.67-1.88 58.33-67.58 100-73 41.67-5.42 58.33 45.13 100 47 41.67 1.88 58.33-39.67 100-38 41.67 1.67 58.33 43.7 100 46 41.67 2.3 79.17-27.7 100-35"/><path d="M10 340c18.75 3.13 50.42 20.63 90 15 39.58-5.63 58.33-46.58 100-42 41.67 4.58 58.33 65.88 100 64 41.67-1.88 58.33-67.58 100-73 41.67-5.42 58.33 45.13 100 47 41.67 1.88 58.33-39.67 100-38 41.67 1.67 58.33 43.7 100 46 41.67 2.3 79.17-27.7 100-35"/><path d="M10 307c18.75 3.13 50.42 20.63 90 15 39.58-5.63 58.33-46.58 100-42 41.67 4.58 58.33 65.88 100 64 41.67-1.88 58.33-67.58 100-73 41.67-5.42 58.33 45.13 100 47 41.67 1.88 58.33-39.67 100-38 41.67 1.67 58.33 43.7 100 46 41.67 2.3 79.17-27.7 100-35"/><path d="M10 274c18.75 3.13 50.42 20.63 90 15 39.58-5.63 58.33-46.58 100-42 41.67 4.58 58.33 65.88 100 64 41.67-1.88 58.33-67.58 100-73 41.67-5.42 58.33 45.13 100 47 41.67 1.88 58.33-39.67 100-38 41.67 1.67 58.33 43.7 100 46 41.67 2.3 79.17-27.7 100-35"/><path d="M10 241c18.75 3.13 50.42 20.63 90 15 39.58-5.63 58.33-46.58 100-42 41.67 4.58 58.33 65.88 100 64 41.67-1.88 58.33-67.58 100-73 41.67-5.42 58.33 45.13 100 47 41.67 1.88 58.33-39.67 100-38 41.67 1.67 58.33 43.7 100 46 41.67 2.3 79.17-27.7 100-35"/><path d="M10 208c18.75 3.13 50.42 20.63 90 15 39.58-5.63 58.33-46.58 100-42 41.67 4.58 58.33 65.88 100 64 41.67-1.88 58.33-67.58 100-73 41.67-5.42 58.33 45.13 100 47 41.67 1.88 58.33-39.67 100-38 41.67 1.67 58.33 43.7 100 46 41.67 2.3 79.17-27.7 100-35"/><path d="M10 175c18.75 3.13 50.42 20.63 90 15 39.58-5.63 58.33-46.58 100-42 41.67 4.58 58.33 65.88 100 64 41.67-1.88 58.33-67.58 100-73 41.67-5.42 58.33 45.13 100 47 41.67 1.88 58.33-39.67 100-38 41.67 1.67 58.33 43.7 100 46 41.67 2.3 79.17-27.7 100-35"/><path d="M10 142c18.75 3.13 50.42 20.63 90 15 39.58-5.63 58.33-46.58 100-42 41.67 4.58 58.33 65.88 100 64 41.67-1.88 58.33-67.58 100-73 41.67-5.42 58.33 45.13 100 47 41.67 1.88 58.33-39.67 100-38 41.67 1.67 58.33 43.7 100 46 41.67 2.3 79.17-27.7 100-35"/><path d="M10 109c18.75 3.13 50.42 20.63 90 15 39.58-5.63 58.33-46.58 100-42 41.67 4.58 58.33 65.88 100 64 41.67-1.88 58.33-67.58 100-73 41.67-5.42 58.33 45.13 100 47 41.67 1.88 58.33-39.67 100-38 41.67 1.67 58.33 43.7 100 46 41.67 2.3 79.17-27.7 100-35"/><path d="M10 76c18.75 3.13 50.42 20.63 90 15 39.58-5.63 58.33-46.58 100-42 41.67 4.58 58.33 65.88 100 64 41.67-1.88 58.33-67.58 100-73 41.67-5.42 58.33 45.13 100 47 41.67 1.88 58.33-39.67 100-38 41.67 1.67 58.33 43.7 100 46 41.67 2.3 79.17-27.7 100-35"/><path d="M10 43c18.75 3.13 50.42 20.63 90 15 39.58-5.63 58.33-46.58 100-42 41.67 4.58 58.33 65.88 100 64 41.67-1.88 58.33-67.58 100-73 41.67-5.42 58.33 45.13 100 47 41.67 1.88 58.33-39.67 100-38 41.67 1.67 58.33 43.7 100 46 41.67 2.3 79.17-27.7 100-35"/></g></svg>